# xmcd
#
# Track frame offsets:
#	150
#	16538
#	34638
#	49974
#	60395
#	69923
#	90017
#	106267
#	124394
#	139743
#	150201
#	159803
#
# Disc length: 2399 seconds
#
# Revision: 1
# Processed by: cddbd v1.5.1PL2 Copyright (c) Steve Scherf et al.
# Submitted via: audiograbber 1.83.01
#
DISCID=7d095d0c
DTITLE=Charles, Ray - CB40167
DYEAR=1900
DGENRE=Karaoke
TTITLE0=What'd I Say w/ Vocal
TTITLE1=Georgia On My Mind w/ Vocal
TTITLE2=Born To Lose w/ Vocal
TTITLE3=Busted w/ Vocal
TTITLE4=Hit The Road Jack w/ Vocal
TTITLE5=I Can't Stop Loving You w/ Vocal
TTITLE6=What'd I Say
TTITLE7=Georgia On My Mind
TTITLE8=Born To Lose
TTITLE9=Busted
TTITLE10=Hit The Road Jack
TTITLE11=I Can't Stop Loving You
EXTD=Karaoke Disc - Not by originall artist
EXTT0=
EXTT1=
EXTT2=
EXTT3=
EXTT4=
EXTT5=
EXTT6=
EXTT7=
EXTT8=
EXTT9=
EXTT10=
EXTT11=
PLAYORDER=
